<svg xml:space="preserve" style="enable-background:new 0 0 1024 1024;" viewBox="0 0 1024 1024" y="0px" x="0px" xmlns:xlink="http://www.w3.org/1999/xlink" xmlns="http://www.w3.org/2000/svg" id="图层_1" version="1.1">
<style type="text/css">
	.st0{fill:#EB7F5E;}
	.st1{fill:#E95513;}
	.st2{fill:#A23724;}
	.st3{clip-path:url(#SVGID_2_);}
	.st4{fill:#270604;}
	.st5{fill:#280704;}
	.st6{fill:#290805;}
	.st7{fill:#2A0905;}
	.st8{fill:#2B0A06;}
	.st9{fill:#2C0B06;}
	.st10{fill:#2D0C07;}
	.st11{fill:#2E0D07;}
	.st12{fill:#2F0E07;}
	.st13{fill:#300F08;}
	.st14{fill:#311008;}
	.st15{fill:#321109;}
	.st16{fill:#331209;}
	.st17{fill:#34140A;}
	.st18{fill:#34150A;}
	.st19{fill:#35160A;}
	.st20{fill:#36170B;}
	.st21{fill:#37180B;}
	.st22{fill:#38190C;}
	.st23{fill:#391A0C;}
	.st24{fill:#3A1B0C;}
	.st25{fill:#3B1C0D;}
	.st26{fill:#3C1D0D;}
	.st27{fill:#3D1E0E;}
	.st28{fill:#3E1F0E;}
	.st29{fill:#3F200F;}
	.st30{fill:#40210F;}
	.st31{clip-path:url(#SVGID_4_);}
	.st32{fill:#F7CAC1;}
	.st33{fill:#F7CBC2;}
	.st34{fill:#F7CCC3;}
	.st35{fill:#F7CDC4;}
	.st36{fill:#F8CEC5;}
	.st37{fill:#F8CFC6;}
	.st38{fill:#F8D0C7;}
	.st39{fill:#F8D1C8;}
	.st40{fill:#F8D2C9;}
	.st41{fill:#F8D3CA;}
	.st42{fill:#F9D4CB;}
	.st43{fill:#F9D5CC;}
	.st44{fill:#F9D6CD;}
	.st45{fill:#F9D7CE;}
	.st46{fill:#F9D8CF;}
	.st47{fill:#F9D9D0;}
	.st48{fill:#FADAD1;}
	.st49{fill:#FADBD2;}
	.st50{fill:#FADCD3;}
	.st51{fill:#FADDD4;}
	.st52{fill:#FADED5;}
	.st53{fill:#FADFD6;}
	.st54{fill:#FBE0D7;}
	.st55{fill:#FBE1D8;}
	.st56{fill:#FBE2D9;}
	.st57{fill:#FBE4DA;}
	.st58{fill:#FBE5DB;}
	.st59{fill:#FBE6DC;}
	.st60{fill:#FBE7DD;}
	.st61{fill:#FCE8DE;}
	.st62{fill:#FCE9DF;}
	.st63{fill:#FCEAE0;}
	.st64{fill:#FCEBE1;}
	.st65{fill:#FCECE2;}
	.st66{fill:#FCEDE3;}
	.st67{fill:#FDEEE4;}
	.st68{fill:#FDEFE5;}
	.st69{fill:#FDF0E6;}
	.st70{fill:#FDF1E7;}
	.st71{fill:#FDF2E8;}
	.st72{fill:#FDF3E9;}
	.st73{fill:#FEF4EA;}
	.st74{fill:#FEF5EB;}
	.st75{fill:#FEF6EC;}
	.st76{fill:#FEF7ED;}
	.st77{fill:#FEF8EE;}
	.st78{fill:#FEF9EF;}
	.st79{fill:#FFFAF0;}
	.st80{fill:#FFFBF1;}
	.st81{fill:#FFFCF2;}
	.st82{fill:#FFFDF3;}
	.st83{fill:#FCEEE9;}
	.st84{clip-path:url(#SVGID_6_);}
	.st85{fill:#492C21;}
	.st86{clip-path:url(#SVGID_8_);}
	.st87{fill:#FFFFFF;}
	.st88{fill:#1C0606;}
	.st89{fill:#411408;}
	.st90{clip-path:url(#SVGID_10_);}
	.st91{fill:#240013;}
	.st92{fill:#240113;}
	.st93{fill:#240213;}
	.st94{fill:#240313;}
	.st95{fill:#240413;}
	.st96{fill:#240513;}
	.st97{fill:#240614;}
	.st98{fill:#240714;}
	.st99{fill:#240814;}
	.st100{fill:#240914;}
	.st101{fill:#240A14;}
	.st102{fill:#240B14;}
	.st103{fill:#230D14;}
	.st104{fill:#230E14;}
	.st105{fill:#230F14;}
	.st106{fill:#231014;}
	.st107{fill:#231114;}
	.st108{fill:#231214;}
	.st109{fill:#231315;}
	.st110{fill:#231415;}
	.st111{fill:#231515;}
	.st112{fill:#231615;}
	.st113{fill:#231715;}
	.st114{fill:#231815;}
	.st115{clip-path:url(#SVGID_12_);}
	.st116{fill:#F7CFCB;}
	.st117{fill:#72201D;}
	.st118{fill:#6D1B18;}
	.st119{fill:#C65436;}
	.st120{fill:#B53522;}
	.st121{fill:#009844;}
	.st122{fill:#C30D23;}
	.st123{fill:#7A1825;}
	.st124{fill:#5A0D1C;}
	.st125{fill:#EC8A20;}
	.st126{fill:#C2611B;}
	.st127{fill:#530C1A;}
	.st128{fill:#60B37B;}
	.st129{fill:#CBDCF1;}
	.st130{fill:#E50012;}
	.st131{fill:#F3F8FC;}
	.st132{fill:#60B974;}
	.st133{fill:#FFFAF3;}
</style>
<path d="M756.3,627.2c0,0,10.6,86.6,34,111.9s7.6,80.1-35.5,69.7s-83.1-83.4-84.8-115.9
	C668.7,666,667.9,618.3,756.3,627.2z" class="st0"></path>
<path d="M745.6,627.2c0,0,10.6,86.6,34,111.9s7.6,80.1-35.5,69.7s-83.1-83.4-84.8-115.9
	C657.9,666,657.1,618.3,745.6,627.2z" class="st1"></path>
<path d="M748.2,653c0,0,7.8,100.2-36.5,136.8c0,0-29.7-29.6-34.5-45.5S748.2,653,748.2,653z" class="st2"></path>
<path d="M795.7,520.9c-8.4-160-140.4-285.3-300.5-285.3c-5.4,0-10.7,0.1-16.1,0.4c-164.9,8.7-292.6,149.9-284.9,314.7
	c-0.4,22.4,1.3,44.7,5,66.8c-19.5,41.4-1.7,90.8,39.7,110.3c4.8,2.3,9.8,4.1,15,5.4c17.8,15.8,39,25.1,63.1,27.7l1.7,0.2
	c42.3,38.9,99.1,61.7,164.6,66.1l4,0.2c6,0.3,12,0.5,17.7,0.5h1.1c7.3,0,14.4-0.2,21.4-0.4l4.2-0.2c14.6-0.5,28.5-1.6,41.3-3.1
	l1.9-0.2C692.7,809.5,750,750.7,765,628c4.4-1.6,8.8-3.2,13.1-4.8c3.8-1.5,6.7-4.7,7.8-8.7C794.1,584,797.4,552.4,795.7,520.9z"></path>
<g>
	<defs>
		<path d="M207,545.8c0,0-7.3,184.7,111.4,197.5s116.2-136,116.2-136L207,545.8z" id="SVGID_1_"></path>
	</defs>
	<clipPath id="SVGID_2_">
		<use style="overflow:visible;" xlink:href="#SVGID_1_"></use>
	</clipPath>
	<g class="st3">
		<rect height="210.3" width="237.5" class="st4" y="545.8" x="199.7"></rect>
		<circle r="106.6" cy="644.9" cx="320.9" class="st4"></circle>
		<circle r="102.7" cy="644.5" cx="325" class="st5"></circle>
		<circle r="98.7" cy="644.1" cx="329.1" class="st6"></circle>
		<circle r="94.8" cy="643.8" cx="333.2" class="st7"></circle>
		<circle r="90.8" cy="643.4" cx="337.3" class="st8"></circle>
		<circle r="86.9" cy="643" cx="341.4" class="st9"></circle>
		<circle r="82.9" cy="642.6" cx="345.5" class="st10"></circle>
		<circle r="79" cy="642.3" cx="349.5" class="st11"></circle>
		<circle r="75" cy="641.9" cx="353.6" class="st12"></circle>
		<circle r="71.1" cy="641.5" cx="357.7" class="st13"></circle>
		<circle r="67.1" cy="641.2" cx="361.8" class="st14"></circle>
		<circle r="63.2" cy="640.8" cx="365.9" class="st15"></circle>
		<circle r="59.2" cy="640.4" cx="370" class="st16"></circle>
		<circle r="55.3" cy="640" cx="374" class="st17"></circle>
		<circle r="51.3" cy="639.7" cx="378.1" class="st18"></circle>
		<circle r="47.4" cy="639.3" cx="382.2" class="st19"></circle>
		<circle r="43.4" cy="638.9" cx="386.3" class="st20"></circle>
		<circle r="39.5" cy="638.6" cx="390.4" class="st21"></circle>
		<circle r="35.5" cy="638.2" cx="394.5" class="st22"></circle>
		<circle r="31.6" cy="637.8" cx="398.5" class="st23"></circle>
		<circle r="27.6" cy="637.5" cx="402.6" class="st24"></circle>
		<circle r="23.7" cy="637.1" cx="406.7" class="st25"></circle>
		<circle r="19.8" cy="636.7" cx="410.8" class="st26"></circle>
		<circle r="15.8" cy="636.3" cx="414.9" class="st27"></circle>
		<circle r="11.8" cy="636" cx="419" class="st28"></circle>
		<circle r="7.9" cy="635.6" cx="423" class="st29"></circle>
		<circle r="4" cy="635.2" cx="427.1" class="st30"></circle>
	</g>
</g>
<g>
	<defs>
		<path d="M756.3,560c-2.8,192.2-78.3,250.2-250.2,250.2c-138.2,0-254.5-85.2-250.2-250.2
			c3.5-138.1,112-250.2,250.2-250.2S758.3,421.8,756.3,560z" id="SVGID_3_"></path>
	</defs>
	<clipPath id="SVGID_4_">
		<use style="overflow:visible;" xlink:href="#SVGID_3_"></use>
	</clipPath>
	<g class="st31">
		<rect height="500.5" width="506.7" class="st32" y="309.7" x="251.6"></rect>
		<circle r="250.3" cy="560" cx="506" class="st32"></circle>
		<circle r="245.3" cy="559.5" cx="511" class="st33"></circle>
		<circle r="240.5" cy="559.1" cx="516" class="st34"></circle>
		<circle r="235.5" cy="558.6" cx="521" class="st35"></circle>
		<circle r="230.6" cy="558.2" cx="526" class="st36"></circle>
		<circle r="225.7" cy="557.7" cx="531" class="st37"></circle>
		<circle r="220.8" cy="557.2" cx="536" class="st38"></circle>
		<circle r="215.9" cy="556.8" cx="541" class="st39"></circle>
		<circle r="211" cy="556.3" cx="545.9" class="st40"></circle>
		<circle r="206.1" cy="555.9" cx="550.9" class="st41"></circle>
		<circle r="201.2" cy="555.4" cx="555.9" class="st42"></circle>
		<circle r="196.3" cy="555" cx="560.9" class="st43"></circle>
		<circle r="191.4" cy="554.5" cx="565.9" class="st44"></circle>
		<circle r="186.5" cy="554.1" cx="570.9" class="st45"></circle>
		<circle r="181.6" cy="553.6" cx="575.8" class="st46"></circle>
		<circle r="176.7" cy="553.2" cx="580.8" class="st47"></circle>
		<circle r="171.8" cy="552.7" cx="585.8" class="st48"></circle>
		<circle r="166.8" cy="552.3" cx="590.8" class="st49"></circle>
		<circle r="161.9" cy="551.8" cx="595.8" class="st50"></circle>
		<circle r="157" cy="551.4" cx="600.8" class="st51"></circle>
		<circle r="152.1" cy="550.9" cx="605.8" class="st52"></circle>
		<circle r="147.2" cy="550.5" cx="610.7" class="st53"></circle>
		<circle r="142.3" cy="550" cx="615.7" class="st54"></circle>
		<circle r="137.4" cy="549.5" cx="620.7" class="st55"></circle>
		<circle r="132.5" cy="549.1" cx="625.7" class="st56"></circle>
		<circle r="127.6" cy="548.7" cx="630.7" class="st57"></circle>
		<circle r="122.7" cy="548.2" cx="635.7" class="st58"></circle>
		<circle r="117.8" cy="547.7" cx="640.6" class="st59"></circle>
		<circle r="112.9" cy="547.3" cx="645.6" class="st60"></circle>
		<circle r="108" cy="546.8" cx="650.6" class="st61"></circle>
		<circle r="103" cy="546.4" cx="655.6" class="st62"></circle>
		<circle r="98.1" cy="545.9" cx="660.6" class="st63"></circle>
		<circle r="93.2" cy="545.5" cx="665.6" class="st64"></circle>
		<circle r="88.3" cy="545" cx="670.5" class="st65"></circle>
		<circle r="83.4" cy="544.6" cx="675.5" class="st66"></circle>
		<circle r="78.5" cy="544.1" cx="680.5" class="st67"></circle>
		<circle r="73.6" cy="543.7" cx="685.5" class="st68"></circle>
		<circle r="68.7" cy="543.2" cx="690.5" class="st69"></circle>
		<circle r="63.8" cy="542.8" cx="695.5" class="st70"></circle>
		<circle r="58.9" cy="542.3" cx="700.5" class="st71"></circle>
		<circle r="54" cy="541.8" cx="705.4" class="st72"></circle>
		<circle r="49.1" cy="541.4" cx="710.4" class="st73"></circle>
		<circle r="44.2" cy="541" cx="715.4" class="st74"></circle>
		<circle r="39.3" cy="540.5" cx="720.4" class="st75"></circle>
		<circle r="34.3" cy="540" cx="725.4" class="st76"></circle>
		<circle r="29.4" cy="539.6" cx="730.4" class="st77"></circle>
		<circle r="24.5" cy="539.1" cx="735.3" class="st78"></circle>
		<circle r="19.6" cy="538.7" cx="740.3" class="st79"></circle>
		<circle r="14.7" cy="538.2" cx="745.3" class="st80"></circle>
		<circle r="9.8" cy="537.8" cx="750.3" class="st81"></circle>
		<circle r="4.9" cy="537.3" cx="755.3" class="st82"></circle>
	</g>
</g>
<path d="M573.7,799.1c-48,7.9-100.2,5-145,1.4c25.2,6.5,51.2,9.8,77.2,9.7c128.4,0,203-32.4,233.7-128.9
	C735.7,686.9,719.9,775,573.7,799.1z" class="st83"></path>
<g>
	<defs>
		<circle r="70" cy="648" cx="274.2" id="SVGID_5_"></circle>
	</defs>
	<clipPath id="SVGID_6_">
		<use style="overflow:visible;" xlink:href="#SVGID_5_"></use>
	</clipPath>
	<g class="st84">
		<rect height="140" width="140" class="st32" y="577.9" x="204.2"></rect>
		<circle r="70" cy="648" cx="274.2" class="st32"></circle>
		<circle r="68.7" cy="648" cx="274.2" class="st33"></circle>
		<circle r="67.3" cy="648" cx="274.2" class="st34"></circle>
		<circle r="65.9" cy="648" cx="274.2" class="st35"></circle>
		<circle r="64.5" cy="648" cx="274.2" class="st36"></circle>
		<circle r="63.2" cy="648" cx="274.2" class="st37"></circle>
		<circle r="61.8" cy="648" cx="274.2" class="st38"></circle>
		<circle r="60.4" cy="648" cx="274.2" class="st39"></circle>
		<circle r="59" cy="648" cx="274.2" class="st40"></circle>
		<circle r="57.7" cy="648" cx="274.2" class="st41"></circle>
		<circle r="56.3" cy="648" cx="274.2" class="st42"></circle>
		<circle r="54.9" cy="648" cx="274.2" class="st43"></circle>
		<circle r="53.5" cy="648" cx="274.2" class="st44"></circle>
		<circle r="52.2" cy="648" cx="274.2" class="st45"></circle>
		<circle r="50.8" cy="648" cx="274.2" class="st46"></circle>
		<circle r="49.4" cy="648" cx="274.2" class="st47"></circle>
		<circle r="48" cy="648" cx="274.2" class="st48"></circle>
		<circle r="46.7" cy="648" cx="274.2" class="st49"></circle>
		<circle r="45.3" cy="648" cx="274.2" class="st50"></circle>
		<circle r="43.9" cy="648" cx="274.2" class="st51"></circle>
		<circle r="42.6" cy="648" cx="274.2" class="st52"></circle>
		<circle r="41.2" cy="648" cx="274.2" class="st53"></circle>
		<circle r="39.8" cy="648" cx="274.2" class="st54"></circle>
		<circle r="38.4" cy="648" cx="274.2" class="st55"></circle>
		<circle r="37.1" cy="648" cx="274.2" class="st56"></circle>
		<circle r="35.7" cy="648" cx="274.2" class="st57"></circle>
		<circle r="34.3" cy="648" cx="274.2" class="st58"></circle>
		<circle r="33" cy="648" cx="274.2" class="st59"></circle>
		
			<ellipse ry="31.6" rx="31.6" cy="648" cx="274.2" class="st60" transform="matrix(7.088905e-02 -0.9975 0.9975 7.088905e-02 -391.5862 875.517)"></ellipse>
		<circle r="30.2" cy="648" cx="274.2" class="st61"></circle>
		
			<ellipse ry="28.8" rx="28.8" cy="648" cx="274.2" class="st62" transform="matrix(7.088905e-02 -0.9975 0.9975 7.088905e-02 -391.5862 875.517)"></ellipse>
		<circle r="27.5" cy="648" cx="274.2" class="st63"></circle>
		<circle r="26.1" cy="648" cx="274.2" class="st64"></circle>
		<circle r="24.7" cy="648" cx="274.2" class="st65"></circle>
		<circle r="23.3" cy="648" cx="274.2" class="st66"></circle>
		<circle r="22" cy="648" cx="274.2" class="st67"></circle>
		<circle r="20.6" cy="648" cx="274.2" class="st68"></circle>
		<circle r="19.2" cy="648" cx="274.2" class="st69"></circle>
		<circle r="17.8" cy="648" cx="274.2" class="st70"></circle>
		<circle r="16.5" cy="648" cx="274.2" class="st71"></circle>
		<circle r="15.1" cy="648" cx="274.2" class="st72"></circle>
		<circle r="13.7" cy="648" cx="274.2" class="st73"></circle>
		<circle r="12.4" cy="648" cx="274.2" class="st74"></circle>
		<circle r="11" cy="648" cx="274.2" class="st75"></circle>
		<circle r="9.6" cy="648" cx="274.2" class="st76"></circle>
		<circle r="8.2" cy="648" cx="274.2" class="st77"></circle>
		<circle r="6.9" cy="648" cx="274.2" class="st78"></circle>
		<circle r="5.5" cy="648" cx="274.2" class="st79"></circle>
		<circle r="4.1" cy="648" cx="274.2" class="st80"></circle>
		<circle r="2.8" cy="648" cx="274.2" class="st81"></circle>
		<circle r="1.4" cy="648" cx="274.2" class="st82"></circle>
	</g>
</g>
<path d="M343.1,556.9c0,0-20.9,36.8-26.8,70.6c-2.2,12.8-18.9,16.6-26.4,5.9c-14.7-21-31.3-56.6-38.2-114.5
	L343.1,556.9z" class="st85"></path>
<g>
	<defs>
		<path d="M479.8,243.9C321.2,252.2,199.4,387.3,207,545.8C300.7,615,433.5,654.7,578.4,647
			c70-3.7,136-18.1,195.1-40.8c7.8-29.2,11-59.4,9.4-89.6C774.5,357.6,638.8,235.5,479.8,243.9z" id="SVGID_7_"></path>
	</defs>
	<clipPath id="SVGID_8_">
		<use style="overflow:visible;" xlink:href="#SVGID_7_"></use>
	</clipPath>
	<g class="st86">
		<rect height="419.2" width="585.2" class="st4" y="235.5" x="199.4"></rect>
		<path d="M743.7,445.7c0,82.7-41.1,160-109.7,206.3c-3.3,2.2-6.7,4.4-10.1,6.5v-2.8H366v2.8c-3.4-2.1-6.7-4.3-10-6.5
			c-113.9-76.9-143.9-231.6-67-345.5c17.8-26.4,40.6-49.2,67-67c3.3-2.2,6.7-4.4,10.1-6.5v1.5H624V233c3.4,2.1,6.8,4.2,10.1,6.5
			C702.6,285.7,743.7,363,743.7,445.7z" class="st4"></path>
		<path d="M734.5,445.7c0,79.6-39.6,154-105.6,198.6c-6.4,4.3-13,8.3-19.8,12v-0.7H380.9v0.7c-6.8-3.7-13.4-7.7-19.8-12
			c-12.7-8.6-24.6-18.4-35.5-29.2c-93.5-93.5-93.5-245.2,0-338.7c10.9-10.9,22.7-20.6,35.5-29.3c6.4-4.3,13-8.3,19.8-12
			c3.4-1.9,6.8-3.6,10.3-5.3v4.7h207.7v-4.7c3.5,1.7,6.9,3.4,10.3,5.3c6.8,3.7,13.4,7.7,19.8,12
			C694.9,291.7,734.5,366.1,734.5,445.7L734.5,445.7z" class="st5"></path>
		<path d="M725.3,445.7c0,92.6-55.4,176.1-140.7,212.2v-2.2H405.4v2.2c-117.2-49.6-172-184.8-122.4-302
			c23.3-55.1,67.2-99,122.4-122.4v1h179.3v-1C669.9,269.6,725.3,353.2,725.3,445.7L725.3,445.7z" class="st6"></path>
		<path d="M716.1,445.7c0.1,105-73.7,195.5-176.5,216.6v-6.6h-89.1v6.6c-119.6-24.6-196.7-141.4-172.1-261
			c17.8-86.6,85.5-154.4,172.1-172.1v5.4h89.1v-5.4c14.2,2.9,28.1,7.2,41.5,12.9C662.9,276.6,716,356.9,716.1,445.7L716.1,445.7z" class="st7"></path>
		<circle r="211.9" cy="445.7" cx="495" class="st8"></circle>
		<circle r="202.7" cy="445.7" cx="495" class="st9"></circle>
		<circle r="193.4" cy="445.7" cx="495" class="st10"></circle>
		<circle r="184.2" cy="445.7" cx="495" class="st11"></circle>
		<circle r="175" cy="445.7" cx="495" class="st12"></circle>
		<circle r="165.8" cy="445.7" cx="495" class="st13"></circle>
		<circle r="156.6" cy="445.7" cx="495" class="st14"></circle>
		<circle r="147.4" cy="445.7" cx="495" class="st15"></circle>
		<circle r="138.2" cy="445.7" cx="495" class="st16"></circle>
		<circle r="129" cy="445.7" cx="495" class="st17"></circle>
		<circle r="119.8" cy="445.7" cx="495" class="st18"></circle>
		<circle r="110.5" cy="445.7" cx="495" class="st19"></circle>
		<circle r="101.3" cy="445.7" cx="495" class="st20"></circle>
		<circle r="92.1" cy="445.7" cx="495" class="st21"></circle>
		<circle r="82.9" cy="445.7" cx="495" class="st22"></circle>
		<circle r="73.7" cy="445.7" cx="495" class="st23"></circle>
		
			<ellipse ry="64.5" rx="64.5" cy="445.7" cx="495" class="st24" transform="matrix(0.7071 -0.7071 0.7071 0.7071 -170.1795 480.5704)"></ellipse>
		
			<ellipse ry="55.3" rx="55.3" cy="445.7" cx="495" class="st25" transform="matrix(0.1602 -0.9871 0.9871 0.1602 -24.2365 862.9333)"></ellipse>
		<circle r="46.1" cy="445.7" cx="495" class="st26"></circle>
		
			<ellipse ry="36.8" rx="36.9" cy="445.7" cx="495" class="st27" transform="matrix(0.1602 -0.9871 0.9871 0.1602 -24.2366 862.9333)"></ellipse>
		<circle r="27.6" cy="445.7" cx="495" class="st28"></circle>
		
			<ellipse ry="18.4" rx="18.4" cy="445.7" cx="495" class="st29" transform="matrix(0.1602 -0.9871 0.9871 0.1602 -24.2366 862.9333)"></ellipse>
		<circle r="9.2" cy="445.7" cx="495" class="st30"></circle>
	</g>
</g>
<circle r="22.1" cy="684" cx="506.6" class="st87"></circle>
<circle r="22.1" cy="682.5" cx="506.6" class="st88"></circle>
<circle r="12.5" cy="678.7" cx="509.3" class="st89"></circle>
<circle r="7.6" cy="676.4" cx="514.4" class="st87"></circle>
<circle r="22.1" cy="684" cx="608" class="st87"></circle>
<circle r="22.1" cy="682.5" cx="608" class="st88"></circle>
<circle r="12.5" cy="678.7" cx="610.7" class="st89"></circle>
<circle r="7.6" cy="676.4" cx="615.8" class="st87"></circle>
<g>
	<defs>
		<path d="M527.2,658.8c-2.3,0-4.6-0.9-6.3-2.4c-21.2-19.3-38.8-7.7-40.8-6.3c-4.1,3.1-10,2.2-13-2
			c-3.1-4.1-2.2-10,2-13l0,0c10.7-8,37.9-16.7,64.3,7.5c3.8,3.5,4.1,9.4,0.6,13.2C532.4,657.6,529.9,658.7,527.2,658.8L527.2,658.8z" id="SVGID_9_"></path>
	</defs>
	<clipPath id="SVGID_10_">
		<use style="overflow:visible;" xlink:href="#SVGID_9_"></use>
	</clipPath>
	<g class="st90">
		<rect height="40.3" width="1.2" class="st91" y="618.4" x="464.2"></rect>
		<rect height="40.3" width="3" class="st91" y="618.4" x="465.5"></rect>
		<rect height="40.3" width="3" class="st92" y="618.4" x="468.4"></rect>
		<rect height="40.3" width="3" class="st93" y="618.4" x="471.4"></rect>
		<rect height="40.3" width="3" class="st94" y="618.4" x="474.3"></rect>
		<rect height="40.3" width="3" class="st95" y="618.4" x="477.3"></rect>
		<rect height="40.3" width="3" class="st96" y="618.4" x="480.3"></rect>
		<rect height="40.3" width="3" class="st97" y="618.4" x="483.2"></rect>
		<rect height="40.3" width="3" class="st98" y="618.4" x="486.2"></rect>
		<rect height="40.3" width="3" class="st99" y="618.4" x="489.1"></rect>
		<rect height="40.3" width="3" class="st100" y="618.4" x="492.1"></rect>
		<rect height="40.3" width="3" class="st101" y="618.4" x="495.1"></rect>
		<rect height="40.3" width="3" class="st102" y="618.4" x="498"></rect>
		<rect height="40.3" width="3" class="st103" y="618.4" x="501"></rect>
		<rect height="40.3" width="3" class="st104" y="618.4" x="504"></rect>
		<rect height="40.3" width="3" class="st105" y="618.4" x="506.9"></rect>
		<rect height="40.3" width="3" class="st106" y="618.4" x="509.9"></rect>
		<rect height="40.3" width="3" class="st107" y="618.4" x="512.9"></rect>
		<rect height="40.3" width="3" class="st108" y="618.4" x="515.8"></rect>
		<rect height="40.3" width="3" class="st109" y="618.4" x="518.8"></rect>
		<rect height="40.3" width="3" class="st110" y="618.4" x="521.8"></rect>
		<rect height="40.3" width="3" class="st111" y="618.4" x="524.7"></rect>
		<rect height="40.3" width="3" class="st112" y="618.4" x="527.7"></rect>
		<rect height="40.3" width="3" class="st113" y="618.4" x="530.6"></rect>
		<rect height="40.3" width="3" class="st114" y="618.4" x="533.6"></rect>
		<rect height="40.3" width="1" class="st114" y="618.4" x="536.6"></rect>
	</g>
</g>
<g>
	<defs>
		<path d="M581.8,655.6c-5.1,0-9.3-4.2-9.3-9.3c0-2.6,1.1-5.1,3-6.9c26.5-24.1,53.7-15.4,64.4-7.4
			c4.1,3.1,5,8.9,2,13c-3.1,4.1-8.9,5-13,2c-2-1.4-19.6-13-40.7,6.3C586.3,654.8,584.1,655.6,581.8,655.6z" id="SVGID_11_"></path>
	</defs>
	<clipPath id="SVGID_12_">
		<use style="overflow:visible;" xlink:href="#SVGID_11_"></use>
	</clipPath>
	<g class="st115">
		<rect height="40.3" width="1" class="st91" y="615.3" x="571.4"></rect>
		<rect height="40.3" width="3" class="st91" y="615.3" x="572.5"></rect>
		<rect height="40.3" width="3" class="st92" y="615.3" x="575.4"></rect>
		<rect height="40.3" width="3" class="st93" y="615.3" x="578.4"></rect>
		<rect height="40.3" width="3" class="st94" y="615.3" x="581.3"></rect>
		<rect height="40.3" width="3" class="st95" y="615.3" x="584.3"></rect>
		<rect height="40.3" width="3" class="st96" y="615.3" x="587.3"></rect>
		<rect height="40.3" width="3" class="st97" y="615.3" x="590.2"></rect>
		<rect height="40.3" width="3" class="st98" y="615.3" x="593.2"></rect>
		<rect height="40.3" width="3" class="st99" y="615.3" x="596.2"></rect>
		<rect height="40.3" width="3" class="st100" y="615.3" x="599.1"></rect>
		<rect height="40.3" width="3" class="st101" y="615.3" x="602.1"></rect>
		<rect height="40.3" width="3" class="st102" y="615.3" x="605"></rect>
		<rect height="40.3" width="3" class="st103" y="615.3" x="608"></rect>
		<rect height="40.3" width="3" class="st104" y="615.3" x="611"></rect>
		<rect height="40.3" width="3" class="st105" y="615.3" x="613.9"></rect>
		<rect height="40.3" width="3" class="st106" y="615.3" x="616.9"></rect>
		<rect height="40.3" width="3" class="st107" y="615.3" x="619.9"></rect>
		<rect height="40.3" width="3" class="st108" y="615.3" x="622.8"></rect>
		<rect height="40.3" width="3" class="st109" y="615.3" x="625.8"></rect>
		<rect height="40.3" width="3" class="st110" y="615.3" x="628.8"></rect>
		<rect height="40.3" width="3" class="st111" y="615.3" x="631.7"></rect>
		<rect height="40.3" width="3" class="st112" y="615.3" x="634.7"></rect>
		<rect height="40.3" width="3" class="st113" y="615.3" x="637.7"></rect>
		<rect height="40.3" width="3" class="st114" y="615.3" x="640.6"></rect>
		<rect height="40.3" width="1.2" class="st114" y="615.3" x="643.6"></rect>
	</g>
</g>
<ellipse ry="9.2" rx="9.2" cy="739.3" cx="517.1" class="st116" transform="matrix(0.9239 -0.3827 0.3827 0.9239 -243.543 254.1471)"></ellipse>
<circle r="9.2" cy="739.3" cx="591.1" class="st116"></circle>
<path d="M554.7,759.5c-23.7,0-40.9-16.6-41.2-16.9c-1.8-1.9-1.7-4.8,0.2-6.6c1.8-1.7,4.5-1.7,6.3,0
	c1.3,1.3,33.2,31.7,68.1-0.6c1.9-1.7,4.8-1.6,6.6,0.3s1.6,4.8-0.3,6.6C580.5,755.1,566.8,759.5,554.7,759.5z" class="st117"></path>
<path d="M376.6,727.8c0,0,5.7-101.5,79.9-118.8c0,0,31.1,28.7,79.2-4.1c0,0,29.2,16,61.3,0c0,0,30.3,17.3,75.2-2.6
	c0,0,58.3,25,73.2,30.6s-44.8-78.5-44.8-78.5H384.3l-47,133L376.6,727.8z" class="st118"></path>
<path d="M454.6,596.4c0,0-58.9,23.6-69.8,70.8c-3.5,15.2-5.8,30.9-4.9,46.5c1.4,25.2,16,55-3.6,77.5
	c-16.5,19-54,36-90.9,3s68.7-183.3,68.7-183.3S426.1,584.4,454.6,596.4z" class="st0"></path>
<path d="M405.1,623.9c-55.2,52.1-5.2,116.8-40.7,162.7c-20.9,27-62.4,29.3-83.6,2.6c-9.4-11.8-14.3-28.5-6.2-51.8
	c21.6-62.1-3.7-152.6-73.4-183.7c0,0-42.8-342.9,309.7-320.9c285.9,17.9,294.4,311.5,258.1,396c-3.9,9-13.2,13.9-21.5,8.8
	l-27.6-16.8c-57.8-35.1-125.3-52.5-192.7-46.3C484.3,578.5,439.3,591.7,405.1,623.9z" class="st1"></path>
<path d="M594.5,336.3c-27.8-6.7-56.2-10.7-84.8-11.9C157.2,307.4,200,571,200,571c28.4,9.7,53.2,29.2,66.7,49.5
	C298.5,485.1,424.8,373.9,594.5,336.3z" class="st119"></path>
<path d="M496,327.6c207.8,13,269,171.5,273,289.6l0.1-0.1c36.3-84.5,27.8-378.1-258.1-396
	c-282.1-17.6-311.1,198.4-311.4,285.4C226.7,415.2,300.7,315.4,496,327.6z" class="st120"></path>
<circle r="79.2" cy="529.8" cx="488.3" class="st121"></circle>
<circle r="79.2" cy="523.1" cx="623.2" class="st121"></circle>
<ellipse ry="52.2" rx="52.2" cy="526.6" cx="493" class="st87" transform="matrix(0.1602 -0.9871 0.9871 0.1602 -105.7237 928.8766)"></ellipse>
<circle r="52.2" cy="519.9" cx="627.4" class="st87"></circle>
<circle r="30.3" cy="524.1" cx="494.3" class="st30"></circle>
<circle r="30.3" cy="517.5" cx="627.3" class="st30"></circle>
<circle r="14.5" cy="519.2" cx="500.5" class="st87"></circle>
<circle r="14.5" cy="512.5" cx="635.3" class="st87"></circle>
<path d="M404.2,563.6c0,0-21.1-73.8,56.6-103.6c0,0,34.2-16.7,60.5-3c0,0-4.7-43.8-44.5-31.8c0,0-53.6-25.3-71.7,24.6
	c0,0-22.3,5.2-21.1,30.1C384,479.9,346.5,530.7,404.2,563.6z" class="st122"></path>
<path d="M705.4,548.7c0,0,13.7-75.5-66.6-97.5c0,0-35.7-13.2-60.5,3c0,0,0.3-44,41.2-36.1c0,0,50.9-30.5,73.8,17.3
	c0,0,22.7,3,23.9,27.9C717.2,463.3,759.5,510.2,705.4,548.7z" class="st122"></path>
<ellipse ry="21.1" rx="16.1" cy="440.6" cx="439.3" class="st123" transform="matrix(0.8826 -0.4701 0.4701 0.8826 -155.5405 258.202)"></ellipse>
<ellipse ry="21.1" rx="16.1" cy="469.2" cx="396.4" class="st123" transform="matrix(0.5556 -0.8315 0.8315 0.5556 -213.9139 538.1245)"></ellipse>
<ellipse ry="21.1" rx="16.1" cy="510.6" cx="376.3" class="st123" transform="matrix(0.1272 -0.9919 0.9919 0.1272 -177.9893 818.8739)"></ellipse>
<ellipse ry="16.1" rx="21.1" cy="431.7" cx="651.2" class="st123" transform="matrix(0.3803 -0.9249 0.9249 0.3803 4.3129 869.7829)"></ellipse>
<ellipse ry="16.1" rx="21.1" cy="461.7" cx="696.7" class="st123" transform="matrix(0.8029 -0.5961 0.5961 0.8029 -137.9312 506.2977)"></ellipse>
<ellipse ry="16.1" rx="21.1" cy="502" cx="718.9" class="st123" transform="matrix(0.9843 -0.1762 0.1762 0.9843 -77.2206 134.5386)"></ellipse>
<path d="M355.5,487.1c23.1-39.5,57.5-71.2,98.8-91c8.5-4,12.2-14.1,8.2-22.6c-0.1-0.1-0.1-0.3-0.2-0.4
	c-18-34.7-56.1-54.2-94.8-48.5c-41.4,6-74.3,40.6-78,82.3c-3.2,34.4,13.2,67.7,42.4,86.1c8,4.9,18.5,2.5,23.4-5.5
	C355.4,487.4,355.4,487.2,355.5,487.1z" class="st124"></path>
<path d="M348.4,489.6c23.1-39.5,57.5-71.2,98.8-91c8.5-4,12.2-14.1,8.2-22.6c-0.1-0.1-0.1-0.3-0.2-0.4
	c-18-34.8-56.1-54.3-94.9-48.6c-41.4,6-74.3,40.6-78,82.3c-3.2,34.4,13.2,67.7,42.4,86.1c8,5,18.4,2.6,23.4-5.4
	C348.2,489.9,348.3,489.7,348.4,489.6z" class="st123"></path>
<path d="M347.9,445.6c13-19,31-34.1,52.1-43.4c5.9-2.6,8.7-9.5,6.1-15.4c-0.1-0.3-0.2-0.5-0.4-0.8
	c-9.3-17.1-27.7-27.2-47.1-25.9c-25.1,1.7-45.5,23.1-46.2,48.2c-0.4,15.5,6.4,30.3,18.5,40c5.1,4,12.5,3.2,16.5-1.9
	C347.6,446.1,347.7,445.8,347.9,445.6z" class="st125"></path>
<path d="M344.2,449.4c1.7-0.9,3.2-2.2,4.3-3.8c3.1-4.6,6.5-8.9,10.2-13C353.4,437.7,348.5,443.4,344.2,449.4z" class="st126"></path>
<path d="M406.3,385.9c-9.3-17.1-27.7-27.2-47.1-25.9c-14.1,1-26.6,8.2-35,18.8c8-7,18-11.3,28.6-12.1
	c19.4-1.4,37.8,8.7,47.1,25.8c1.6,3,1.8,6.5,0.6,9.6l0.2-0.1c5.9-2.6,8.6-9.5,6-15.4C406.6,386.4,406.5,386.2,406.3,385.9z" class="st126"></path>
<path d="M747,474.5c-25-38.3-60.9-68.2-103-85.9c-8.7-3.6-12.9-13.5-9.3-22.3c0.1-0.1,0.1-0.3,0.2-0.4
	c16.3-35.6,53.4-56.9,92.3-53.1c41.6,4,76.2,36.9,82,78.3c4.9,34.1-9.8,68.2-38,88c-7.7,5.4-18.3,3.6-23.7-4.1
	C747.3,474.8,747.1,474.7,747,474.5z" class="st124"></path>
<path d="M741.5,471.1c-25-38.3-60.9-68.2-103-85.9c-8.7-3.6-12.9-13.5-9.4-22.2c0.1-0.2,0.1-0.3,0.2-0.4
	c16.3-35.6,53.4-56.9,92.3-53.1c41.6,4,76.2,36.9,81.9,78.3c4.9,34.1-9.8,68.2-38,88c-7.7,5.4-18.3,3.6-23.7-4.1
	C741.7,471.5,741.6,471.3,741.5,471.1z" class="st123"></path>
<path d="M748.3,438.2c-12.7-18.2-30.1-32.7-50.3-41.9c-6.8-3.1-10-11.3-6.2-17.8c9.5-16.5,27.5-26.1,46.5-24.8
	c25.1,1.7,45.5,23.1,46.2,48.2c0.4,15.1-6,29.5-17.5,39.2C761.3,446,752.6,444.4,748.3,438.2z" class="st125"></path>
<path d="M749,355.5c15.7,8.1,26.7,24.4,27.2,42.7c0.4,15.1-6,29.5-17.5,39.2c-2.3,2-5.3,2.9-8.3,2.8
	c4.6,4.1,11.7,4.8,16.6,0.6c11.5-9.7,17.9-24.2,17.5-39.2C783.9,380.1,769,361.6,749,355.5z" class="st126"></path>
<path d="M341.2,560.7h40.5c5.2,0,9.3,4.2,9.3,9.3v0c0,5.2-4.2,9.3-9.3,9.3h-40.5c-5.2,0-9.3-4.2-9.3-9.3v0
	C331.8,564.8,336,560.7,341.2,560.7z" class="st123"></path>
<path d="M359.9,599l38.3-13c4.9-1.7,10.2,0.9,11.9,5.8l0,0c1.7,4.9-0.9,10.2-5.8,11.9l-38.3,13
	c-4.9,1.7-10.2-0.9-11.9-5.8v0C352.4,606,355.1,600.7,359.9,599z" class="st123"></path>
<path d="M765.6,569.7h-40.5c-5.2,0-9.3-4.2-9.3-9.3v0c0-5.2,4.2-9.3,9.3-9.3h40.5c5.2,0,9.3,4.2,9.3,9.3v0
	C774.9,565.6,770.7,569.7,765.6,569.7z" class="st123"></path>
<path d="M740.9,607.1l-38.3-13c-4.9-1.7-7.5-7-5.8-11.9l0,0c1.7-4.9,7-7.5,11.9-5.8l38.3,13c4.9,1.7,7.5,7,5.8,11.9
	l0,0C751.1,606.1,745.7,608.8,740.9,607.1z" class="st123"></path>
<path d="M514.6,359.9l59.8-3c6.1-0.3,11.3,4.4,11.6,10.5v0c0.3,6.1-4.4,11.3-10.5,11.6l-59.8,3
	c-6.1,0.3-11.3-4.4-11.6-10.5v0C503.7,365.4,508.4,360.2,514.6,359.9z" class="st123"></path>
<path d="M537,430l-3-59.8c-0.3-6.1,4.4-11.3,10.5-11.6h0c6.1-0.3,11.3,4.4,11.6,10.5l3,59.8
	c0.3,6.1-4.4,11.3-10.5,11.6h0C542.5,440.8,537.3,436.1,537,430z" class="st123"></path>
<path d="M516.2,393.7l59.8-3c6.1-0.3,11.3,4.4,11.6,10.5v0c0.3,6.1-4.4,11.3-10.5,11.6l-59.8,3
	c-6.1,0.3-11.3-4.4-11.6-10.5v0C505.4,399.2,510.1,394,516.2,393.7z" class="st123"></path>
<path d="M517.9,427.5l59.8-3c6.1-0.3,11.3,4.4,11.6,10.5v0c0.3,6.1-4.4,11.3-10.5,11.6l-59.8,3
	c-6.1,0.3-11.3-4.4-11.6-10.5v0C507.1,433,511.8,427.8,517.9,427.5z" class="st123"></path>
<path d="M324.3,650.2l23.5,3c8.4,1.1,14.4,8.8,13.3,17.3l0,0c-1.1,8.4-8.8,14.4-17.3,13.3l-23.5-3
	c-8.4-1.1-14.4-8.8-13.3-17.3l0,0C308.1,655.1,315.8,649.1,324.3,650.2z" class="st123"></path>
<path d="M316.5,711l23.5,3c8.4,1.1,14.4,8.8,13.3,17.3l0,0c-1.1,8.4-8.8,14.4-17.3,13.3l-23.5-3
	c-8.4-1.1-14.4-8.8-13.3-17.3l0,0C300.3,715.9,308,709.9,316.5,711z" class="st123"></path>
<path d="M445.4,368.2L445.4,368.2c2.7,4.7,1.1,10.6-3.6,13.3l-8.2,4.7c-4.7,2.7-10.6,1.1-13.3-3.6l0,0
	c-2.7-4.7-1.1-10.6,3.6-13.3l8.2-4.7C436.7,361.9,442.7,363.5,445.4,368.2z" class="st127"></path>
<path d="M417.7,344.9l1.5,2.6c2.3,3.9,0.9,9-3,11.2l-2.6,1.5c-3.9,2.3-9,0.9-11.2-3l-1.5-2.6c-2.3-3.9-0.9-9,3-11.2
	l2.6-1.5C410.4,339.6,415.4,340.9,417.7,344.9z" class="st127"></path>
<path d="M676.3,375.8L676.3,375.8c-3.5,4.1-9.6,4.6-13.7,1.1l-7.2-6.1c-4.1-3.5-4.6-9.6-1.1-13.7l0,0
	c3.5-4.1,9.6-4.6,13.7-1.1l7.2,6.1C679.2,365.5,679.8,371.7,676.3,375.8z" class="st127"></path>
<path d="M688.9,341.8l-2,2.3c-2.9,3.5-8.1,3.9-11.6,1l-2.3-2c-3.5-2.9-3.9-8.1-1-11.6l2-2.3c2.9-3.5,8.1-3.9,11.6-1
	l2.3,2C691.4,333.2,691.8,338.4,688.9,341.8z" class="st127"></path>
<path d="M428.8,582.1c0,0,53.1,41.7,101.9,9.7C530.8,591.8,492,640.2,428.8,582.1z" class="st128"></path>
<path d="M559.6,573.7c0,0,58.6,41.7,112.6,9.7C672.2,583.4,629.4,631.8,559.6,573.7z" class="st128"></path>
<ellipse ry="45.6" rx="35.1" cy="544.4" cx="559.5" class="st129" transform="matrix(0.9988 -4.954705e-02 4.954705e-02 0.9988 -26.284 28.3917)"></ellipse>
<ellipse ry="19.6" rx="33.4" cy="584.7" cx="563.3" class="st122" transform="matrix(0.9988 -4.954705e-02 4.954705e-02 0.9988 -28.2806 28.6304)"></ellipse>
<ellipse ry="16" rx="20.9" cy="573.2" cx="562.8" class="st130" transform="matrix(0.9988 -4.954705e-02 4.954705e-02 0.9988 -27.7077 28.5878)"></ellipse>
<path d="M562.8,503c0,0,13.7,24.6,10.7,51.4c0,0,9.3,2.4,11.8,10.6C585.3,565,597.3,518,562.8,503z" class="st131"></path>
<circle r="8.3" cy="570.2" cx="571.7" class="st131"></circle>
<path d="M624.4,458c0,0,51.5,9.8,62.5,48.7C686.8,506.7,687.2,452.9,624.4,458z" class="st132"></path>
<path d="M494.3,469.6c0,0,38.7,5.4,48.1,33.8C542.5,503.4,540.7,463.5,494.3,469.6z" class="st132"></path>
<path d="M200,571c0,0-45.6-282.3,191-341C391,230,196.5,288.9,200,571z" class="st123"></path>
<path d="M231.6,586.7c0,0,69.2,28.2,59.9,102.9c-6.3,50.3-12.8,100.3,15.2,118.5c0,0-47.4-8.4-33.7-65.7
	c11.9-50.1,7.9-61.3,5.9-84.1C276.4,630.8,241.5,590.3,231.6,586.7z" class="st123"></path>
<circle r="3.8" cy="705.8" cx="413" class="st133"></circle>
<circle r="3.4" cy="702.8" cx="693.3" class="st133"></circle>
</svg>
